<svg width="40" height="40" viewBox="0 0 40 40" fill="none" xmlns="http://www.w3.org/2000/svg">
<path d="M27.9169 5.93337V3.33337C27.9169 2.65004 27.3502 2.08337 26.6669 2.08337C25.9836 2.08337 25.4169 2.65004 25.4169 3.33337V5.83337H14.5836V3.33337C14.5836 2.65004 14.0169 2.08337 13.3336 2.08337C12.6502 2.08337 12.0836 2.65004 12.0836 3.33337V5.93337C7.58355 6.35004 5.40022 9.03337 5.06689 13.0167C5.03355 13.5 5.43355 13.9 5.90022 13.9H34.1002C34.5836 13.9 34.9836 13.4834 34.9336 13.0167C34.6002 9.03337 32.4169 6.35004 27.9169 5.93337Z" fill="#5F33E1"/>
<path opacity="0.4" d="M33.3333 16.4C34.25 16.4 35 17.15 35 18.0667V28.3334C35 33.3334 32.5 36.6667 26.6667 36.6667H13.3333C7.5 36.6667 5 33.3334 5 28.3334V18.0667C5 17.15 5.75 16.4 6.66667 16.4H33.3333Z" fill="#5F33E1"/>
<path d="M14.1667 25C13.7333 25 13.3 24.8166 12.9833 24.5166C12.6833 24.1999 12.5 23.7666 12.5 23.3333C12.5 22.9 12.6833 22.4666 12.9833 22.15C13.45 21.6833 14.1833 21.5333 14.8 21.7999C15.0167 21.8833 15.2 22 15.35 22.15C15.65 22.4666 15.8333 22.9 15.8333 23.3333C15.8333 23.7666 15.65 24.1999 15.35 24.5166C15.0333 24.8166 14.6 25 14.1667 25Z" fill="#5F33E1"/>
<path d="M20.0002 25C19.5668 25 19.1335 24.8166 18.8168 24.5166C18.5168 24.1999 18.3335 23.7666 18.3335 23.3333C18.3335 22.9 18.5168 22.4666 18.8168 22.15C18.9668 22 19.1502 21.8833 19.3668 21.7999C19.9835 21.5333 20.7168 21.6833 21.1835 22.15C21.4835 22.4666 21.6668 22.9 21.6668 23.3333C21.6668 23.7666 21.4835 24.1999 21.1835 24.5166C21.1002 24.5833 21.0168 24.6499 20.9335 24.7166C20.8335 24.7833 20.7335 24.8333 20.6335 24.8666C20.5335 24.9166 20.4335 24.95 20.3335 24.9666C20.2168 24.9833 20.1168 25 20.0002 25Z" fill="#5F33E1"/>
<path d="M25.8332 25C25.3998 25 24.9665 24.8166 24.6498 24.5166C24.3498 24.2 24.1665 23.7666 24.1665 23.3333C24.1665 22.9 24.3498 22.4667 24.6498 22.15C24.8165 22 24.9832 21.8833 25.1998 21.8C25.4998 21.6666 25.8332 21.6333 26.1665 21.7C26.2665 21.7166 26.3665 21.75 26.4665 21.8C26.5665 21.8333 26.6665 21.8833 26.7665 21.95C26.8498 22.0167 26.9332 22.0833 27.0165 22.15C27.3165 22.4667 27.4998 22.9 27.4998 23.3333C27.4998 23.7666 27.3165 24.2 27.0165 24.5166C26.9332 24.5833 26.8498 24.65 26.7665 24.7166C26.6665 24.7833 26.5665 24.8333 26.4665 24.8667C26.3665 24.9167 26.2665 24.95 26.1665 24.9667C26.0498 24.9833 25.9332 25 25.8332 25Z" fill="#5F33E1"/>
<path d="M14.1667 30.8334C13.95 30.8334 13.7333 30.7834 13.5333 30.7C13.3167 30.6167 13.15 30.5 12.9833 30.35C12.6833 30.0333 12.5 29.6 12.5 29.1667C12.5 28.7334 12.6833 28.3 12.9833 27.9834C13.15 27.8334 13.3167 27.7167 13.5333 27.6333C13.8333 27.5 14.1667 27.4667 14.5 27.5333C14.6 27.55 14.7 27.5833 14.8 27.6333C14.9 27.6667 15 27.7167 15.1 27.7834C15.1833 27.85 15.2667 27.9167 15.35 27.9834C15.65 28.3 15.8333 28.7334 15.8333 29.1667C15.8333 29.6 15.65 30.0333 15.35 30.35C15.2667 30.4167 15.1833 30.5 15.1 30.55C15 30.6167 14.9 30.6667 14.8 30.7C14.7 30.75 14.6 30.7834 14.5 30.8C14.3833 30.8167 14.2833 30.8334 14.1667 30.8334Z" fill="#5F33E1"/>
<path d="M20.0002 30.8334C19.5668 30.8334 19.1335 30.65 18.8168 30.35C18.5168 30.0333 18.3335 29.6 18.3335 29.1667C18.3335 28.7334 18.5168 28.3 18.8168 27.9834C19.4335 27.3667 20.5668 27.3667 21.1835 27.9834C21.4835 28.3 21.6668 28.7334 21.6668 29.1667C21.6668 29.6 21.4835 30.0333 21.1835 30.35C20.8668 30.65 20.4335 30.8334 20.0002 30.8334Z" fill="#5F33E1"/>
<path d="M25.8332 30.8334C25.3998 30.8334 24.9665 30.65 24.6498 30.35C24.3498 30.0333 24.1665 29.6 24.1665 29.1667C24.1665 28.7334 24.3498 28.3 24.6498 27.9834C25.2665 27.3667 26.3998 27.3667 27.0165 27.9834C27.3165 28.3 27.4998 28.7334 27.4998 29.1667C27.4998 29.6 27.3165 30.0333 27.0165 30.35C26.6998 30.65 26.2665 30.8334 25.8332 30.8334Z" fill="#5F33E1"/>
</svg>
