<svg width="40" height="40" viewBox="0 0 40 40" fill="none" xmlns="http://www.w3.org/2000/svg">
<path opacity="0.4" d="M34.1665 16.9834H29.3498C25.3998 16.9834 22.1832 13.7667 22.1832 9.81671V5.00004C22.1832 4.08337 21.4332 3.33337 20.5165 3.33337H13.4498C8.3165 3.33337 4.1665 6.66671 4.1665 12.6167V27.3834C4.1665 33.3334 8.3165 36.6667 13.4498 36.6667H26.5498C31.6832 36.6667 35.8332 33.3334 35.8332 27.3834V18.65C35.8332 17.7334 35.0832 16.9834 34.1665 16.9834Z" fill="#5F33E1"/>
<path d="M26.3335 3.68328C25.6501 2.99995 24.4668 3.46661 24.4668 4.41661V10.2333C24.4668 12.6666 26.5335 14.6833 29.0501 14.6833C30.6335 14.6999 32.8335 14.6999 34.7168 14.6999C35.6668 14.6999 36.1668 13.5833 35.5001 12.9166C33.1001 10.4999 28.8001 6.14995 26.3335 3.68328Z" fill="#5F33E1"/>
<path d="M22.5 22.9166H12.5C11.8167 22.9166 11.25 22.35 11.25 21.6666C11.25 20.9833 11.8167 20.4166 12.5 20.4166H22.5C23.1833 20.4166 23.75 20.9833 23.75 21.6666C23.75 22.35 23.1833 22.9166 22.5 22.9166Z" fill="#5F33E1"/>
<path d="M19.1667 29.5834H12.5C11.8167 29.5834 11.25 29.0167 11.25 28.3334C11.25 27.65 11.8167 27.0834 12.5 27.0834H19.1667C19.85 27.0834 20.4167 27.65 20.4167 28.3334C20.4167 29.0167 19.85 29.5834 19.1667 29.5834Z" fill="#5F33E1"/>
</svg>
