<svg width="34" height="34" viewBox="0 0 34 34" fill="none" xmlns="http://www.w3.org/2000/svg">
<path d="M31.6665 10.0167L20.7498 1.28336C18.6165 -0.416636 15.2831 -0.433303 13.1665 1.2667L2.24981 10.0167C0.683141 11.2667 -0.266859 13.7667 0.0664746 15.7334L2.16647 28.3C2.64981 31.1167 5.26647 33.3334 8.11647 33.3334H25.7831C28.5998 33.3334 31.2665 31.0667 31.7498 28.2834L33.8498 15.7167C34.1498 13.7667 33.1998 11.2667 31.6665 10.0167ZM18.1998 26.6667C18.1998 27.35 17.6331 27.9167 16.9498 27.9167C16.2665 27.9167 15.6998 27.35 15.6998 26.6667V21.6667C15.6998 20.9834 16.2665 20.4167 16.9498 20.4167C17.6331 20.4167 18.1998 20.9834 18.1998 21.6667V26.6667Z" fill="#5F33E1"/>
</svg>
